HIERARCHY
ROOT Hips
{
    OFFSET 0.0 0.0 0.0
    CHANNELS 6 Xposition Yposition Zposition Zrotation Xrotation Yrotation
    JOINT LeftHipJoint
    {
        OFFSET 0.1 0.0 0.0
        CHANNELS 3 Zrotation Xrotation Yrotation
        JOINT LeftUpLeg
        {
            OFFSET 11.362306431761457 0.0 0.0
            CHANNELS 3 Zrotation Xrotation Yrotation
            JOINT LeftLeg
            {
                OFFSET 0.0 0.0 -49.54311506866986
                CHANNELS 3 Zrotation Xrotation Yrotation
                JOINT LeftFoot
                {
                    OFFSET 0.0 0.0 -47.3226039123563
                    CHANNELS 3 Zrotation Xrotation Yrotation
                    End Site
                    {
                        OFFSET 0.0 -0.1 0.0
                    }
                }
            }
        }
    }
    JOINT LowerBack
    {
        OFFSET 0.0 0.0 0.1
        CHANNELS 3 Zrotation Xrotation Yrotation
        JOINT Spine
        {
            OFFSET 0.0 0.0 23.7734860828389
            CHANNELS 3 Zrotation Xrotation Yrotation
            JOINT Spine1
            {
                OFFSET 0.0 0.0 25.638137968707934
                CHANNELS 3 Zrotation Xrotation Yrotation
                JOINT LeftShoulder
                {
                    OFFSET 0.1 0.0 0.0
                    CHANNELS 3 Zrotation Xrotation Yrotation
                    JOINT LeftArm
                    {
                        OFFSET 13.505195669849297 0.0 0.0
                        CHANNELS 3 Zrotation Xrotation Yrotation
                        JOINT LeftForeArm
                        {
                            OFFSET 27.63447433325428 0.0 0.0
                            CHANNELS 3 Zrotation Xrotation Yrotation
                            JOINT LeftHand
                            {
                                OFFSET 21.279673504043053 0.0 0.0
                                CHANNELS 3 Zrotation Xrotation Yrotation
                                End Site
                                {
                                    OFFSET 0.1 0.0 0.0
                                }
                            }
                        }
                    }
                }
                JOINT Neck
                {
                    OFFSET 0.0 0.0 0.1
                    CHANNELS 3 Zrotation Xrotation Yrotation
                    JOINT Neck1
                    {
                        OFFSET 0.0 0.0 15.122100355411579
                        CHANNELS 3 Zrotation Xrotation Yrotation
                        End Site
                        {
                            OFFSET 0.0 0.0 11.443440541606806
                        }
                    }
                }
                JOINT RightShoulder
                {
                    OFFSET -0.1 0.0 0.0
                    CHANNELS 3 Zrotation Xrotation Yrotation
                    JOINT RightArm
                    {
                        OFFSET -13.505195669849297 0.0 0.0
                        CHANNELS 3 Zrotation Xrotation Yrotation
                        JOINT RightForeArm
                        {
                            OFFSET -27.63447433325428 0.0 0.0
                            CHANNELS 3 Zrotation Xrotation Yrotation
                            JOINT RightHand
                            {
                                OFFSET -21.279673504043053 0.0 0.0
                                CHANNELS 3 Zrotation Xrotation Yrotation
                                End Site
                                {
                                    OFFSET -0.1 0.0 0.0
                                }
                            }
                        }
                    }
                }
            }
        }
    }
    JOINT RightHipJoint
    {
        OFFSET -0.1 0.0 0.0
        CHANNELS 3 Zrotation Xrotation Yrotation
        JOINT RightUpLeg
        {
            OFFSET -11.362306431761457 0.0 0.0
            CHANNELS 3 Zrotation Xrotation Yrotation
            JOINT RightLeg
            {
                OFFSET 0.0 0.0 -49.54311506866986
                CHANNELS 3 Zrotation Xrotation Yrotation
                JOINT RightFoot
                {
                    OFFSET 0.0 0.0 -47.3226039123563
                    CHANNELS 3 Zrotation Xrotation Yrotation
                    End Site
                    {
                        OFFSET 0.0 -0.1 0.0
                    }
                }
            }
        }
    }
}
MOTION
Frames: 9
Frame Time: 0.016666666666666666
0.0 0.0 100.47347915466602 0 -90 0 0 0 0 0 0 0 0 0 0 0 0 0 0 0 0 0 0 0 0 0 0 0 0 0 0 0 0 0 0 0 0 0 0 0 0 0 0 0 0 0 0 0 0 0 0 0 0 0 0 0 0 0 0 0 0 0 0 0 0 0 0 0 0
0.0 0.0 100.47347915466602 -126.31884460600524 70.29422758265444 -53.123441004042924 0.0 0.0 0.0 -0.5229663802646368 12.740921713651304 0.6611103870198335 -0.2152567607353205 7.393240411109733 0.7205114053630197 0.0 0.0 0.0 0.0 0.0 0.0 -0.978760538151241 23.41087272952998 2.2063735667385482 3.1671164943746364 1.5676965045276747e-15 -8.3878197122244e-16 0.0 0.0 0.0 -37.35631450239469 6.4947352140632155 80.63247643884104 -50.66473968093945 1.9511021801810703e-14 -1.8915146793487233e-14 0.0 0.0 0.0 0.0 0.0 0.0 6.233017434063912 9.804099795150464 -1.8322506405937984 0.0 0.0 0.0 42.70204202744324 7.8283734356501835 -80.75054248287297 40.95953645628061 -1.471676516568401e-15 -1.3030922669589922e-14 0.0 0.0 0.0 0.0 0.0 0.0 -0.6619097312671606 16.601672614290155 -2.4868373000917576 -0.7143306103435508 8.373537718010027 0.5111578953321338 0.0 0.0 -1.9878466759146977e-16
0.0 0.0 100.47347915466602 -125.97821408015648 70.7465205983946 -53.51483961023245 0.0 0.0 0.0 -0.601310636106578 12.66531826541852 0.6798429232582316 -0.2588280896253303 7.328269007197978 1.3442069452231864 0.0 0.0 0.0 0.0 0.0 0.0 -1.1145506835706136 23.00506589295663 2.629795891706239 3.2123001838456076 2.2286890955181127e-17 7.948262700759017e-16 0.0 0.0 0.0 -35.37817600268369 5.287163811009882 80.72541799922827 -49.98177678810071 1.6367586609705695e-15 7.781103494804555e-15 0.0 -1.5902773407317584e-15 0.0 0.0 0.0 0.0 6.725918875478915 9.987792278782994 -1.9030455971054432 0.0 0.0 0.0 42.11507563116104 7.535703479197176 -80.03032360932131 41.53331321614083 5.229334203250206e-15 4.8201352885178435e-15 0.0 0.0 0.0 0.0 0.0 0.0 -0.7475886097643957 16.13101817077921 -2.0653295308394 -0.7273077289339787 8.608606593838532 0.7227609625631047 0.0 0.0 -7.951386703658792e-16
0.0 0.0 100.47347915466602 -126.32318090613228 71.08779332301866 -52.878300945112244 0.0 0.0 1.9878466759146977e-16 -0.6229771137436247 12.910316767728315 0.3918532775784065 -0.2938834929727624 7.133594898687628 1.7882066674510213 0.0 0.0 0.0 0.0 0.0 1.9878466759146977e-16 -1.1393741584138048 23.120779719032516 2.8587413463800515 3.246922641243772 -2.2527037104870832e-17 -7.948195000819331e-16 0.0 0.0 0.0 -35.06553831379951 4.14583166034359 80.86328910241204 -49.411162419818396 0.0 -0.0 0.0 0.0 0.0 0.0 0.0 0.0 7.178111009481724 9.859172563595632 -2.3632879101122737 0.0 0.0 0.0 43.10450548997279 7.641672103387192 -79.25693352167674 41.54152874202555 2.973840098628824e-15 -1.1279198329521461e-15 -6.3611093629270335e-15 0.0 0.0 0.0 0.0 1.9878466759146977e-16 -0.7572718285792083 16.071516623779075 -1.9166027637636716 -0.7045751373993266 8.527399574025933 0.5383314328277737 0.0 0.0 0.0
0.0 0.0 100.47347915466602 -126.3941649249332 71.3674521804649 -52.69188716047207 -3.1805546814635168e-15 1.5902773407317584e-15 9.939233379573495e-17 -0.6017732535436916 12.533203539573643 0.013611667112507289 -0.33822188323077224 7.112081876347843 2.3682943546610664 0.0 0.0 0.0 -3.1805546814635168e-15 1.5902773407317584e-15 9.939233379573495e-17 -1.1249900674353503 22.95186213355119 3.2217306542544035 3.2849942670805805 -1.5668328389837369e-15 8.403941814638262e-16 0.0 0.0 7.951386703658792e-16 -34.709272744382574 3.5958852503329366 80.60693493855335 -49.42766370823401 8.667717016168193e-15 3.989239835312459e-15 0.0 0.0 0.0 0.0 0.0 7.951386703658792e-16 7.279292918739106 9.486567456648418 -2.6901258113592252 0.0 0.0 7.951386703658792e-16 43.40378489669022 7.470608084206108 -79.08462704769832 41.33479317918995 -1.461528809672932e-15 1.414858633129423e-14 0.0 0.0 0.0 -3.1805546814635168e-15 1.5902773407317584e-15 9.939233379573495e-17 -0.7489098300640342 15.972741879553064 -1.8309834482460436 -0.6948392962794796 8.591596342820905 0.3250054429912678 0.0 0.0 3.975693351829396e-16
0.0 0.0 100.47347915466602 -126.18870027635451 71.45846139256706 -52.643926841254135 0.0 -1.5902773407317582e-15 0.0 -0.5804313756255486 12.355273189468106 -0.4555135138519501 -0.3992539983831934 7.29382079211741 2.9649348496103056 0.0 0.0 0.0 0.0 -1.5902773407317582e-15 0.0 -1.0986172902405762 22.92214765201823 3.0820169987868766 3.342780963620617 -1.6127926681506139e-15 -7.48416551871827e-16 0.0 0.0 0.0 -35.28463433949727 3.5227811039369206 80.65163058446245 -49.004547754370286 -1.1064536040221875e-14 8.938378144284407e-15 0.0 0.0 0.0 0.0 0.0 0.0 7.367106749596594 9.17163998112391 -2.927342910781037 0.0 0.0 0.0 43.74238806951113 8.097736867501165 -79.01796065930381 40.35681237294492 -1.3344485244036776e-14 -8.650024024022822e-15 6.3611093629270335e-15 0.0 0.0 0.0 -1.5902773407317582e-15 0.0 -0.7299836334403431 15.93115937304227 -2.0721209143116903 -0.7202065390448025 8.568373866274717 0.4154236419963903 0.0 0.0 -3.975693351829396e-16
0.0 0.0 100.47347915466602 -127.36974486095222 71.78429052052985 -51.61642048345609 0.0 0.0 0.0 -0.6673307492785143 12.677564999608578 -0.2533470100019704 -0.39713365942331696 6.976938282472936 3.6288915965938693 0.0 -1.5902773407317584e-15 0.0 0.0 0.0 0.0 -1.2627934998101966 23.42167089964375 3.319495792810805 3.4659131074672267 -1.6376418701556574e-15 -1.54145812333739e-15 0.0 0.0 7.951386703658792e-16 -35.74303711671532 3.9385078331373373 80.6202557322601 -47.942423785818114 2.262521373558082e-15 -1.2917111690484226e-14 0.0 0.0 0.0 0.0 0.0 7.951386703658792e-16 7.737646020058571 8.906106822152593 -2.28621282113793 0.0 0.0 7.951386703658792e-16 44.57172607854525 8.817470757448936 -78.7419843114234 39.967348827201015 0.0 0.0 0.0 0.0 0.0 0.0 0.0 0.0 -0.8149588220415042 15.834560160435958 -1.7375118400155072 -0.7178325734832453 8.553233621326191 0.292046330739529 0.0 0.0 0.0
0.0 0.0 100.47347915466602 -126.4117923597336 71.72246389418767 -52.58795008490485 0.0 0.0 1.9878466759146977e-16 -0.651851808825169 12.390362794680733 -0.6143669544714107 -0.4335067679927002 6.8613609294620534 4.25090876064855 0.0 0.0 7.951386703658792e-16 0.0 0.0 1.9878466759146977e-16 -1.2542339741248647 23.290097657724363 3.5343537841716963 3.5773852241235637 -3.2038239885394664e-15 -6.95474972482675e-16 0.0 0.0 7.951386703658792e-16 -35.78722988450578 4.091578442873279 80.92612740915715 -48.28242975961179 -3.203157140488319e-15 -8.406379065184642e-15 0.0 0.0 6.3611093629270335e-15 0.0 0.0 7.951386703658792e-16 7.248265602690292 8.532408473246605 -2.204611729166557 0.0 0.0 7.951386703658792e-16 44.75731316503392 9.296712856541959 -79.03333019873787 38.69697812872688 3.207151763372711e-16 2.0113037191007397e-14 0.0 0.0 0.0 0.0 0.0 1.9878466759146977e-16 -0.798623355113205 15.547282697203087 -1.6949014204882855 -0.7196358691902371 8.661384303542993 0.2993008138606363 0.0 0.0 0.0
0.0 0.0 100.47347915466602 -125.95212029993074 71.58185816532206 -53.17658648221528 0.0 0.0 0.0 -0.5781002099654396 12.037231508559719 -1.240198132714389 -0.49134956846555755 7.068525682295876 5.108579444257805 0.0 0.0 0.0 0.0 0.0 0.0 -1.162659487175937 23.647029972214614 3.4377497536288786 3.889750176788218 2.6985380877284455e-17 7.94680624106393e-16 0.0 0.0 0.0 -36.81675941550111 4.441924328102771 80.66036478654121 -48.30321680917869 4.0537379295786866e-15 -5.153630094007325e-15 0.0 0.0 0.0 0.0 0.0 0.0 7.145631993107212 7.528304895055294 -2.290679411499305 0.0 0.0 0.0 45.67217835961291 9.343986375123327 -78.27711060702119 38.91663823589894 0.0 0.0 0.0 0.0 0.0 0.0 0.0 0.0 -0.7251372643568276 15.518370095656369 -1.3565601989802776 -0.6532002343390776 9.021369509531514 0.12395024991423192 0.0 0.0 -3.975693351829396e-16
